<?xml version="1.0" encoding="utf-8"?>
<!-- Generator: Adobe Illustrator 20.0.0, SVG Export Plug-In . SVG Version: 6.00 Build 0)  -->
<svg version="1.1" id="Layer_1" xmlns="http://www.w3.org/2000/svg" xmlns:xlink="http://www.w3.org/1999/xlink" x="0px" y="0px"
	 viewBox="0 0 694.4 105.4" style="enable-background:new 0 0 694.4 105.4;" xml:space="preserve">
<style type="text/css">
	.st0{fill:#FFFFFF;}
	.st1{fill:#BACFEC;}
</style>
<g>
	<path class="st0" d="M9.8,56.4c0,9.2,1.1,17.1,13,17.1s13-7.9,13-17.1V25.8h9.8v31.6c0,14.6-5.8,24.7-22.8,24.7S0,72,0,57.4V25.8
		h9.8V56.4z"/>
	<path class="st0" d="M63.1,33.7h0.2c4.8-6.1,11.9-9.3,19.9-9.3c16.9,0,27.6,13.9,27.6,29c0,15.6-10.4,28.8-27.7,28.8
		c-7.9,0-15.1-3.3-19.8-9.2h-0.2v32.4h0c-5.4,0-9.8-4.4-9.8-9.8V25.8h9.8V33.7z M62.6,52.7c0,10.7,6.6,20.9,18.9,20.9
		c12.6,0,19.3-9.7,19.3-20.8c0-11-7.2-19.8-19.4-19.8C70,33,62.6,42.4,62.6,52.7z"/>
	<path class="st0" d="M139.4,38.6c-1.4-2.9-4.3-5.6-7.9-5.6c-3.4,0-7.1,2.6-7.1,6.1c0,5,6.6,6.9,13.4,9.6
		c6.7,2.7,13.4,6.5,13.4,15.7c0,10.4-8.8,17.8-19.5,17.8c-9.7,0-17.3-5.2-20.4-13.9l8.7-3.5c2.5,5.1,5.3,8.7,11.8,8.7
		c5.3,0,9.3-3.4,9.3-8.4c0-12.2-26-8-26-25.3c0-9.2,7.9-15.5,17.2-15.5c6.6,0,12.8,4.4,15.3,10.1L139.4,38.6z"/>
	<path class="st0" d="M169.2,80.6h-9.8V34.5h-6v-8.6h6V6.1h9.8v19.7h10.3v8.6h-10.3V80.6z"/>
	<path class="st0" d="M195.2,31.8h0.2c3.4-4.3,6.4-7.5,12.8-7.5c3.3,0,6,1.1,8.8,2.6l-4.7,8.5c-2-1.3-3.3-2.4-5.9-2.4
		c-10.8,0-11.3,13.2-11.3,20.3v27.4h-9.8V25.8h9.8V31.8z"/>
	<path class="st0" d="M223.3,55.2c0.1,10.1,7.7,18.3,18.9,18.3c8.3,0,13.7-4.8,17.6-11.3l8.3,4.5c-5.5,9.8-14.9,15.4-26.6,15.4
		c-17.2,0-28.2-12.5-28.2-28.2c0-16.2,9.9-29.6,28-29.6c18.5,0,28.4,14.6,27.4,30.9H223.3z M258.3,47.3C257,39.4,250,33,241.4,33
		c-8.5,0-16.3,6.4-17.6,14.3H258.3z"/>
	<path class="st0" d="M331.1,80.6h-9.8v-7.6H321c-5,6.1-11.8,9.1-19.9,9.1c-16.9,0-27.6-13.6-27.6-28.8c0-15.6,10.4-29,27.7-29
		c7.9,0,15,3.5,19.8,9.3h0.2v-7.8h9.8V80.6z M283.6,52.7c0,10.7,6.6,20.9,18.9,20.9c12.6,0,19.3-9.7,19.3-20.8
		c0-11-7.2-19.8-19.4-19.8C290.9,33,283.6,42.4,283.6,52.7z"/>
	<path class="st0" d="M349.3,31.8h0.2c3.1-4.5,8-7.5,13.9-7.5c6.8,0,12.9,3.4,16,9.1c3.4-6.1,10.3-9.1,17.3-9.1
		c14.7,0,18.4,11.4,18.4,23v33.4h-9.8V48.8c0-7.1-0.5-15.9-10.6-15.9c-11.3,0-12.5,10.4-12.5,18.7v29h-9.8V49.5
		c0-6.8-0.9-16.6-10.3-16.6c-11.5,0-12.8,11.1-12.8,19.4v28.3h-9.8V25.8h9.8V31.8z"/>
	<path class="st1" d="M446.9,62.9l17.9-41.3l18,41.3L500,25.8h11.2l-28.6,58.7l-17.8-40.8L447,84.5l-28.4-58.7h11.2L446.9,62.9z"/>
	<path class="st1" d="M508.9,53.7c0-15.4,12.3-27.8,27.8-27.5c14.3,0.2,26.3,12.1,26.8,26.5c0.6,15.8-11.8,28.4-27.3,28.4
		C521.1,81,508.9,68.9,508.9,53.7z M518.2,53.5c0,10.4,7.3,18.8,18,18.8s18-8.4,18-18.8c0-10.3-7.3-18.8-18-18.8
		S518.2,43.3,518.2,53.5z"/>
	<path class="st1" d="M580.8,31.8h0.2c3.4-4.3,6.4-7.5,12.8-7.5c3.3,0,6,1.1,8.8,2.6l-4.7,8.5c-2-1.3-3.3-2.4-5.9-2.4
		c-10.8,0-11.3,13.2-11.3,20.3v27.4H571V25.8h9.8V31.8z"/>
	<path class="st1" d="M617,46.1l21-20.3h13.1l-24.7,23.3l29.3,31.5h-13l-23.2-25l-2.6,2.4v22.5h-9.8V9.8c0-5.4,4.4-9.8,9.8-9.8l0,0
		V46.1z"/>
	<path class="st1" d="M682.6,38.6c-1.4-2.9-4.3-5.6-7.9-5.6c-3.4,0-7.1,2.6-7.1,6.1c0,5,6.6,6.9,13.4,9.6
		c6.7,2.7,13.4,6.5,13.4,15.7c0,10.4-8.8,17.8-19.5,17.8c-9.7,0-17.3-5.2-20.4-13.9l8.7-3.5c2.5,5.1,5.3,8.7,11.8,8.7
		c5.3,0,9.3-3.4,9.3-8.4c0-12.2-26-8-26-25.3c0-9.2,7.9-15.5,17.2-15.5c6.6,0,12.8,4.4,15.3,10.1L682.6,38.6z"/>
</g>
</svg>
